<?xml version="1.0" encoding="UTF-8"?>
<svg xmlns="http://www.w3.org/2000/svg" width="940" height="420" viewBox="0 0 940 420">
<rect width="940" height="420" fill="#0b0b0d"/>
<text x="70" y="26" fill="#F4F4F5" font-size="16" font-family="DejaVu Sans,Arial">COP  ·  portafolio vs neto invertido (millones)</text>
<line x1="70" y1="360.0" x2="890" y2="360.0" stroke="#2A2A30" stroke-width="1"/>
<text x="62" y="364.0" fill="#9A9AA3" font-size="11" text-anchor="end" font-family="DejaVu Sans,Arial">$0 M</text>
<line x1="70" y1="280.0" x2="890" y2="280.0" stroke="#2A2A30" stroke-width="1"/>
<text x="62" y="284.0" fill="#9A9AA3" font-size="11" text-anchor="end" font-family="DejaVu Sans,Arial">$50 M</text>
<line x1="70" y1="200.0" x2="890" y2="200.0" stroke="#2A2A30" stroke-width="1"/>
<text x="62" y="204.0" fill="#9A9AA3" font-size="11" text-anchor="end" font-family="DejaVu Sans,Arial">$100 M</text>
<line x1="70" y1="120.0" x2="890" y2="120.0" stroke="#2A2A30" stroke-width="1"/>
<text x="62" y="124.0" fill="#9A9AA3" font-size="11" text-anchor="end" font-family="DejaVu Sans,Arial">$150 M</text>
<line x1="70" y1="40.0" x2="890" y2="40.0" stroke="#2A2A30" stroke-width="1"/>
<text x="62" y="44.0" fill="#9A9AA3" font-size="11" text-anchor="end" font-family="DejaVu Sans,Arial">$200 M</text>
<polyline fill="none" stroke="#3DDC84" stroke-width="2.5" points="70.0,315.3 92.2,317.8 113.6,318.8 135.8,315.9 157.2,315.7 179.4,313.6 201.5,310.6 222.3,310.5 244.4,312.1 265.9,295.4 288.0,273.9 309.5,266.6 331.7,254.7 353.8,244.3 375.3,230.8 397.4,216.2 418.9,198.2 441.0,203.3 463.2,203.2 483.2,192.6 505.4,189.6 526.8,181.0 549.0,173.5 570.4,144.4 592.6,148.4 614.8,143.0 636.2,133.8 658.4,136.3 679.8,131.8 702.0,130.2 724.1,123.8 744.2,143.4 766.3,113.3 787.8,83.1 809.9,92.7 831.4,130.5 853.5,115.5 875.7,103.5 890.0,103.5"/>
<polyline fill="none" stroke="#F5A623" stroke-width="2.2" points="70.0,318.2 92.2,318.2 113.6,318.2 135.8,318.2 157.2,318.2 179.4,318.2 201.5,318.2 222.3,318.2 244.4,318.2 265.9,305.8 288.0,293.6 309.5,286.3 331.7,279.0 353.8,271.7 375.3,264.5 397.4,257.2 418.9,238.9 441.0,238.9 463.2,235.6 483.2,220.8 505.4,219.3 526.8,219.3 549.0,219.3 570.4,200.9 592.6,200.9 614.8,200.4 636.2,196.9 658.4,191.9 679.8,189.5 702.0,189.5 724.1,189.5 744.2,189.5 766.3,188.4 787.8,183.9 809.9,181.3 831.4,181.3 853.5,178.3 875.7,173.3 890.0,173.3"/>
<text x="70.0" y="382" fill="#9A9AA3" font-size="12" text-anchor="middle" font-family="DejaVu Sans,Arial">2023</text>
<text x="179.4" y="382" fill="#9A9AA3" font-size="12" text-anchor="middle" font-family="DejaVu Sans,Arial">2024</text>
<text x="441.0" y="382" fill="#9A9AA3" font-size="12" text-anchor="middle" font-family="DejaVu Sans,Arial">2025</text>
<text x="702.0" y="382" fill="#9A9AA3" font-size="12" text-anchor="middle" font-family="DejaVu Sans,Arial">2026</text>
<circle cx="86" cy="400" r="4" fill="#3DDC84"/><text x="96" y="404" fill="#F4F4F5" font-size="12" font-family="DejaVu Sans,Arial">Portafolio</text>
<circle cx="190" cy="400" r="4" fill="#F5A623"/><text x="200" y="404" fill="#F4F4F5" font-size="12" font-family="DejaVu Sans,Arial">Neto invertido</text>
</svg>
